<svg xmlns="http://www.w3.org/2000/svg" viewBox="0 0 200 170" role="img" aria-label="enemy avatar">
  <defs>
    <linearGradient id="g1" x1="0%" y1="0%" x2="100%" y2="100%">
      <stop offset="0%" stop-color="#d3f4f7" stop-opacity="0.9"/>
      <stop offset="50%" stop-color="#9ec6c8" stop-opacity="0.9"/>
      <stop offset="100%" stop-color="#6ea3a5" stop-opacity="0.95"/>
    </linearGradient>
    <linearGradient id="g2" x1="30%" y1="10%" x2="80%" y2="80%">
      <stop offset="0%" stop-color="#ecffff" stop-opacity="0.95"/>
      <stop offset="100%" stop-color="#b2d7d6" stop-opacity="0.8"/>
    </linearGradient>
  </defs>
  <rect width="100%" height="100%" fill="transparent"/>
  <path d="M26 78 Q20 50 48 44 Q62 26 94 30 Q120 12 144 26 Q176 18 176 44 Q196 64 182 92 Q190 110 178 124 Q178 148 154 152 Q128 164 92 160 Q58 168 42 144 Q16 138 20 112 Q-4 98 26 78" fill="url(#g1)" stroke="#6fa3a4" stroke-width="3" stroke-linejoin="round"/>
  <path d="M76 90 Q76 78 94 72 T118 78 Q124 90 110 102 T86 106 Q76 100 76 90" fill="url(#g2)"/>
  <ellipse cx="58" cy="108" rx="16" ry="10" fill="#dff1f3" fill-opacity="0.7"/>
  <ellipse cx="134" cy="108" rx="18" ry="12" fill="#e3f6f7" fill-opacity="0.7"/>
  <path d="M118 26 Q140 10 170 22 Q146 36 158 52 Q136 50 124 36" fill="#b3dadc" fill-opacity="0.65"/>
  <ellipse cx="40" cy="136" rx="12" ry="8" fill="#8bbcbc" fill-opacity="0.9"/>
  <ellipse cx="162" cy="134" rx="14" ry="9" fill="#8bbcbc" fill-opacity="0.9"/>
</svg>
